<?xml version="1.0" encoding="UTF-8"?><svg id="_圖層_1" xmlns="http://www.w3.org/2000/svg" viewBox="0 0 16 16"><path d="M8,.75c4,0,7.25,3.25,7.25,7.25s-3.25,7.25-7.25,7.25S.75,12,.75,8,4,.75,8,.75M8,0C3.58,0,0,3.58,0,8s3.58,8,8,8,8-3.58,8-8S12.42,0,8,0h0Z" fill="#595959" stroke-width="0"/><path d="M6.98,12.32c0-.62.43-1.08,1.03-1.08s1.01.46,1.01,1.08-.4,1.07-1.03,1.07-1.01-.49-1.01-1.07ZM8.63,9.07h-1.25l-.22-5.59c-.02-.48.36-.87.84-.87h0c.48,0,.86.4.84.87l-.22,5.59Z" fill="#595959" stroke-width="0"/></svg>