<svg xmlns="http://www.w3.org/2000/svg" viewBox="0 0 395.7 54.4"><defs><style>.cls-1{fill:none;stroke:#e40012;stroke-linecap:round;stroke-linejoin:round;stroke-width:6px;}</style></defs><title>happy new years (鼠)2-web切版</title><g id="物件"><circle class="cls-1" cx="198" cy="10.8" r="7.8"/><path class="cls-1" d="M207,10.8H330.2a10.2,10.2,0,0,1,.1,20.3H293.1a10.2,10.2,0,1,0,.1,20.3H384"/><path class="cls-1" d="M379.2,38.2a7.6,7.6,0,0,1,5.6-2.4,7.8,7.8,0,1,1,0,15.6"/><path class="cls-1" d="M188.6,10.8H65.5A10.2,10.2,0,0,0,55.3,20.9,10,10,0,0,0,65.4,31.1h37.1a10.2,10.2,0,0,1-.1,20.3H11.6"/><path class="cls-1" d="M16.5,38.2a8,8,0,0,0-5.7-2.4,7.8,7.8,0,0,0,0,15.6"/></g></svg>