<svg xmlns="http://www.w3.org/2000/svg" viewBox="0 0 395.7 54.4"><defs><style>.cls-1{fill:none;stroke:#e40012;stroke-linecap:round;stroke-linejoin:round;stroke-width:6px;}</style></defs><title>happy new years (鼠)2-web切版</title><g id="物件"><circle class="cls-1" cx="197.7" cy="43.6" r="7.8"/><path class="cls-1" d="M188.6,43.6H65.5A10.2,10.2,0,0,1,55.3,33.5,10,10,0,0,1,65.4,23.3h37.1A10.2,10.2,0,1,0,102.4,3H11.6"/><path class="cls-1" d="M16.5,16.2a8,8,0,0,1-5.7,2.4A7.8,7.8,0,0,1,10.8,3"/><path class="cls-1" d="M207,43.6H330.2a10.2,10.2,0,0,0,.1-20.3H293.1A10.2,10.2,0,1,1,293.2,3H384"/><path class="cls-1" d="M379.2,16.2a7.6,7.6,0,0,0,5.6,2.4,7.8,7.8,0,1,0,0-15.6"/></g></svg>